<?xml version="1.0" encoding="utf-8"?>
<!-- Generator: Adobe Illustrator 18.1.1, SVG Export Plug-In . SVG Version: 6.00 Build 0)  -->
<svg version="1.1" id="Layer_1" xmlns="http://www.w3.org/2000/svg" xmlns:xlink="http://www.w3.org/1999/xlink" x="0px" y="0px"
	 viewBox="0 0 50 50" enable-background="new 0 0 50 50" xml:space="preserve">
<path fill-rule="evenodd" clip-rule="evenodd" fill="none" stroke="#FFFFFF" stroke-miterlimit="10" d="M25,3.2
	c-11.8,0-21.3,9.6-21.3,21.3c0,11.8,9.5,21.3,21.3,21.3c11.8,0,21.3-9.6,21.3-21.3C46.3,12.7,36.8,3.2,25,3.2z"/>
<path fill="#FFFFFF" d="M35.2,24.3c-0.1,0.2-0.2,0.5-0.3,0.7c2.8,0.1,5.7,0.6,7.6,1.1l0,0.1c-1.9-0.5-4.8-1-7.7-1.1
	c-0.9,1.5-2.6,3.5-6.1,3.6L28,28.8c0.7,0.4,1.1,1.2,1.2,2c0.1,0.7,0.2,1.4,0.2,2.1c0,1,0,2,0,3c0,0.3,0,0.6,0.1,0.8
	c0.1,0.4,0.5,0.7,0.9,0.8c0.2,0.1,0.4,0.2,0.4,0.4c0,0.1-0.1,0.2-0.2,0.2c-0.1,0-0.2,0-0.3,0c-0.7,0-1.5-0.1-2-0.6
	c-0.4-0.5-0.6-1.2-0.6-1.9c0-1,0.1-2.1,0-3.1c0-0.3-0.1-1.3-0.5-1.3c0,0,0,5.6,0,6.2c0,0.4,0,0.8,0.3,1.1c0.2,0.2,0.4,0.3,0.5,0.5
	c0,0.1-0.1,0.3-0.2,0.3c-0.1,0.1-0.3,0.1-0.4,0.1c-0.3,0-0.6-0.2-0.9-0.3c-0.4-0.2-0.8-0.5-1-1c-0.1-0.3-0.1-0.6-0.1-0.9
	c0-2.1,0-4.2,0-6.4c0,0,0-0.2-0.3-0.2c-0.3,0-0.3,0.2-0.3,0.2c0,2.1,0,4.2,0,6.4c0,0.3,0,0.6-0.1,0.9c-0.2,0.4-0.6,0.7-1,1
	c-0.3,0.2-0.6,0.3-0.9,0.3c-0.1,0-0.3,0-0.4-0.1c-0.1-0.1-0.2-0.2-0.2-0.3c0-0.2,0.3-0.4,0.5-0.5c0.3-0.3,0.3-0.7,0.3-1.1
	c0-0.5,0-6.2,0-6.2c-0.4,0-0.5,1-0.5,1.3c-0.1,1,0.1,2.1,0,3.1c0,0.7-0.1,1.4-0.6,1.9c-0.5,0.5-1.3,0.7-2,0.6c-0.1,0-0.2,0-0.3,0
	c-0.1,0-0.2-0.1-0.2-0.2c0-0.2,0.2-0.3,0.4-0.4c0.4-0.2,0.7-0.4,0.9-0.8c0.1-0.3,0.1-0.6,0.1-0.8c0-1,0-2,0-3v-0.1
	c-0.7,0.1-1.4,0.2-2.2,0.1c-0.7-0.1-1.4-0.3-1.9-0.8c-0.9-0.8-1.2-2.3-2.3-2.9c-0.3-0.2-0.6-0.3-0.9-0.5c-0.1-0.1-0.2-0.3-0.1-0.4
	c0,0,0.1-0.1,0.1-0.1c0.6-0.2,1.2,0,1.7,0.3c0.5,0.3,0.9,0.8,1.3,1.3c0.2,0.3,0.4,0.5,0.6,0.8c0.5,0.5,1.2,0.7,1.9,0.7
	c0.3,0,0.7-0.1,1-0.1c0.3-0.1,0.6-0.2,0.8-0.3c0,0,0,0,0,0c0.2-0.8,0.5-1.5,1.2-2l-0.7-0.1c-3.5-0.1-5.2-2.1-6.1-3.6
	c-2.9,0-5.8,0.6-7.8,1.1l0-0.1c2-0.5,4.9-1.1,7.7-1.1c-0.1-0.2-0.2-0.4-0.3-0.6c-2.5-0.1-5,0.1-7.5,0.5l0-0.1c2.5-0.4,5-0.6,7.5-0.5
	c-0.5-1.6-0.5-3.8-0.5-3.8c0-1,0.4-3.1,1.7-4.3c-0.9-2.2,0.2-4.3,0.2-4.3s1.2-0.6,4.5,1.7c2-0.6,3.8-0.5,4.3-0.5
	c0.4,0,2.3-0.1,4.3,0.5c3.3-2.2,4.5-1.7,4.5-1.7s1.1,2.2,0.2,4.3c1.3,1.2,1.7,3.3,1.7,4.3c0,0,0,2.1-0.5,3.8
	c2.4-0.1,4.9,0.1,7.3,0.5l0,0.1C40.1,24.4,37.7,24.2,35.2,24.3z"/>
</svg>
