<?xml version="1.0" encoding="utf-8"?>
<!-- Generator: Adobe Illustrator 18.1.1, SVG Export Plug-In . SVG Version: 6.00 Build 0)  -->
<svg version="1.1" id="Layer_1" xmlns="http://www.w3.org/2000/svg" xmlns:xlink="http://www.w3.org/1999/xlink" x="0px" y="0px"
	 viewBox="0 0 50 50" enable-background="new 0 0 50 50" xml:space="preserve">
<circle fill-rule="evenodd" clip-rule="evenodd" fill="none" stroke="#FFFFFF" stroke-miterlimit="10" cx="25" cy="25" r="23.3"/>
<path fill-rule="evenodd" clip-rule="evenodd" fill="#FFFFFF" d="M23.4,12.2c-2.9,0.6-6.6,2.7-8,6c-2.3,6.2,1.1,9.3,2.8,9.6
	c0.6-0.1,0.5-0.7,0.7-1.3c0.3-0.6,0.1-0.9-0.2-1.2c-3.4-5.6,2.7-12,9-10.3c6.4,1.8,4.6,8.2,4.4,9.1c-0.2,0.9-0.8,2.9-2.8,4.4
	c-3,1.6-5.7-0.9-4.1-3.9c0.5-1.7,2.6-7-1.9-6.4c-1.6,0.4-2.5,2.9-2.5,3.8c0,0.6-0.3,1.9,0.5,2.7c-0.2,1-1.7,6.6-2.2,9.4
	c-0.2,2.9,0,4.9,0.2,4.9c0.2,0.1,1.7-1.4,3-4.3c0.3-1,1.1-3.5,1.3-4.8c2.9,3.5,7.8,1.5,9.5-0.2c1.7-1.7,3.2-4.7,3.2-7.5
	C36.9,14.5,29.9,11,23.4,12.2z"/>
</svg>
