<?xml version="1.0" encoding="utf-8"?>
<!-- Generator: Adobe Illustrator 18.1.1, SVG Export Plug-In . SVG Version: 6.00 Build 0)  -->
<svg version="1.1" id="Layer_1" xmlns="http://www.w3.org/2000/svg" xmlns:xlink="http://www.w3.org/1999/xlink" x="0px" y="0px"
	 viewBox="0 0 36 36" enable-background="new 0 0 36 36" xml:space="preserve">
<g>
	<path fill="none" stroke="#FFFFFF" stroke-width="0.75" stroke-miterlimit="10" d="M32.6,28.1l-0.1,0.1c-3.9,4.6-9,7.2-14.5,7.2
		S7.4,32.9,3.5,28.2l-0.1-0.1v-0.2c0.7-4.9,3.3-8.8,7.2-11l0.3-0.2l0.2,0.2c1.8,1.9,4.3,3,6.9,3s5.1-1.1,6.9-3l0.2-0.2l0.3,0.2
		c3.9,2.2,6.4,6.2,7.2,11V28.1z"/>
	<path fill="none" stroke="#FFFFFF" stroke-width="0.75" stroke-miterlimit="10" d="M6.4,31.2c0,0,1.3-5.7,2-7.1"/>
	<path fill="none" stroke="#FFFFFF" stroke-width="0.75" stroke-miterlimit="10" d="M29.8,31.2c0,0-1.3-5.7-2-7.1"/>
	<line fill="none" stroke="#FFFFFF" stroke-width="0.75" stroke-miterlimit="10" x1="18" y1="19.9" x2="18" y2="35.4"/>
	<path fill="none" stroke="#FFFFFF" stroke-width="0.75" stroke-miterlimit="10" d="M26.2,9.3c0,4.8-3.7,8.7-8.2,8.7
		c-4.2,0-7.7-3.4-8.2-7.8c0-0.3,0-0.6,0-0.9c0-0.8,0.1-1.6,0.3-2.3c1-3.7,4.1-6.4,7.9-6.4C22.5,0.6,26.2,4.5,26.2,9.3z"/>
	<path fill="none" stroke="#FFFFFF" stroke-width="0.75" stroke-miterlimit="10" d="M9.8,9.3c0,0.3,0,0.6,0,0.9l0,0
		c-0.9,0-1.6-0.7-1.6-1.6S8.9,7,9.8,7c0.1,0,0.2,0,0.3,0C9.9,7.7,9.8,8.5,9.8,9.3z"/>
	<path fill="none" stroke="#FFFFFF" stroke-width="0.75" stroke-miterlimit="10" d="M26.2,9.3c0,0.3,0,0.6,0,0.9l0,0
		c0.9,0,1.6-0.7,1.6-1.6S27.1,7,26.2,7c-0.1,0-0.2,0-0.3,0C26.1,7.7,26.2,8.5,26.2,9.3z"/>
	<path fill="none" stroke="#FFFFFF" stroke-width="0.75" stroke-miterlimit="10" d="M9.9,8.1c0,0,9.4-0.6,11.2-4.3c0,0,0,0,0.2,0
		c0.8,1.3,2.7,4.3,4.9,4.3"/>
</g>
</svg>
