<?xml version="1.0" encoding="utf-8"?>
<!-- Generator: Adobe Illustrator 18.1.1, SVG Export Plug-In . SVG Version: 6.00 Build 0)  -->
<svg version="1.1" id="Layer_1" xmlns="http://www.w3.org/2000/svg" xmlns:xlink="http://www.w3.org/1999/xlink" x="0px" y="0px"
	 viewBox="0 0 50 50" enable-background="new 0 0 50 50" xml:space="preserve">
<g>
	<path fill="none" stroke="#FFFFFF" stroke-miterlimit="10" d="M46.7,25.9c-0.2,11.6-9.8,21-21.6,20.8C13.5,46.4,4.1,36.9,4.3,25.1
		c0.2-11.6,9.8-21,21.6-20.8C37.5,4.6,46.8,14.2,46.7,25.9z"/>
	<path fill="#FFFFFF" d="M12.4,25.5c0-1.3,0-2.5,0-3.8c0-0.5,0.2-0.9,0.7-1.2c3.9-2.6,7.8-5.2,11.7-7.8c0.5-0.4,1-0.4,1.5,0
		c3.9,2.6,7.8,5.2,11.7,7.8c0.5,0.3,0.7,0.7,0.7,1.2c0,2.5,0,5.1,0,7.6c0,0.5-0.2,0.9-0.6,1.2c-3.9,2.6-7.8,5.2-11.7,7.8
		c-0.5,0.3-1,0.3-1.5,0c-3.9-2.6-7.8-5.2-11.7-7.8c-0.4-0.3-0.6-0.7-0.6-1.2C12.4,28.1,12.4,26.8,12.4,25.5z M24.4,15.7
		c-3,2-5.9,3.9-8.8,5.9c1.3,0.9,2.5,1.7,3.8,2.5c0.1,0,0.2,0,0.3,0c1.5-1,3-2,4.5-3c0.1-0.1,0.2-0.2,0.2-0.3
		C24.4,19.1,24.4,17.4,24.4,15.7z M26.7,15.7c0,0.1,0,0.2,0,0.2c0,1.6,0,3.2,0,4.8c0,0.1,0.1,0.3,0.2,0.4c1.5,1,2.9,2,4.4,3
		c0.2,0.1,0.3,0.1,0.5,0c0.7-0.5,1.3-0.9,2-1.3c0.6-0.4,1.1-0.7,1.7-1.1C32.5,19.6,29.6,17.7,26.7,15.7z M15.6,29.5
		c2.9,2,5.8,3.9,8.7,5.8c0-0.1,0.1-0.1,0.1-0.1c0-1.6,0-3.3,0-4.9c0-0.1-0.1-0.2-0.2-0.3c-1.5-1-3-2-4.5-3c-0.1-0.1-0.3-0.1-0.4,0
		c-0.5,0.3-1,0.7-1.5,1C17,28.5,16.3,29,15.6,29.5z M35.4,29.5c-1.3-0.9-2.5-1.7-3.8-2.5c-0.1-0.1-0.3,0-0.4,0.1
		c-1.5,1-2.9,2-4.4,2.9c-0.2,0.1-0.2,0.3-0.2,0.5c0,1.5,0,3,0,4.5c0,0.1,0,0.2,0,0.4C29.6,33.4,32.5,31.5,35.4,29.5z M21.5,25.5
		c1.3,0.9,2.6,1.7,3.8,2.5c0.1,0.1,0.3,0,0.4-0.1c1-0.6,1.9-1.3,2.9-1.9c0.3-0.2,0.6-0.4,0.9-0.6c-1.3-0.9-2.5-1.7-3.8-2.5
		c-0.1-0.1-0.2-0.1-0.3,0C24.1,23.8,22.8,24.6,21.5,25.5z M17.5,25.5c-0.9-0.6-1.9-1.2-2.8-1.9c0,1.3,0,2.5,0,3.7
		C15.6,26.7,16.5,26.1,17.5,25.5z M36.3,27.4c0-1.3,0-2.5,0-3.7c-0.9,0.6-1.8,1.2-2.8,1.9C34.5,26.1,35.4,26.7,36.3,27.4z"/>
</g>
</svg>
