<?xml version="1.0" encoding="utf-8"?>
<!-- Generator: Adobe Illustrator 18.1.1, SVG Export Plug-In . SVG Version: 6.00 Build 0)  -->
<svg version="1.1" id="Layer_1" xmlns="http://www.w3.org/2000/svg" xmlns:xlink="http://www.w3.org/1999/xlink" x="0px" y="0px"
	 viewBox="0 0 50 50" enable-background="new 0 0 50 50" xml:space="preserve">
<path fill-rule="evenodd" clip-rule="evenodd" fill="none" stroke="#FFFFFF" stroke-miterlimit="10" d="M25.5,3.4
	c-11.7,0-21.1,9.4-21.1,21.1c0,11.6,9.4,21.1,21.1,21.1c11.6,0,21.1-9.4,21.1-21.1C46.6,12.9,37.1,3.4,25.5,3.4z"/>
<path fill-rule="evenodd" clip-rule="evenodd" fill="#FFFFFF" d="M32.3,34.6c0,0,0-5.2,0-9.4c0-1-2.7-2.6-4.5-0.3v9.7h-5.2V20.1h5.2
	v1.3c1.2-1.1,3.7-1.4,4.3-1.4c0.7,0,5.4-0.6,5.4,4.9s0,9.7,0,9.7H32.3z M15.1,20.1h5.2v14.5h-5.2V20.1z M17.7,18.6
	c-1.4,0-2.5-1.1-2.5-2.5c0-1.4,1.1-2.5,2.5-2.5c1.4,0,2.5,1.1,2.5,2.5C20.2,17.5,19.1,18.6,17.7,18.6z"/>
</svg>
