<?xml version="1.0" encoding="utf-8"?>
<!-- Generator: Adobe Illustrator 18.1.1, SVG Export Plug-In . SVG Version: 6.00 Build 0)  -->
<svg version="1.1" id="Layer_1" xmlns="http://www.w3.org/2000/svg" xmlns:xlink="http://www.w3.org/1999/xlink" x="0px" y="0px"
	 viewBox="0 0 50 50" enable-background="new 0 0 50 50" xml:space="preserve">
<g>
	<g>
		<path id="user-14-icon_1_" d="M40.2,31.6h-6c0-6.5-3.2-3.4-3.2-9.1c0-2.1,1.3-3.2,3.1-3.2c2.5,0,4.3,2.4,1.9,7
			c-0.8,1.5,0.8,1.8,2.6,2.3C40.3,29,40.2,29.9,40.2,31.6z M11.1,28.6c1.8-0.4,3.4-0.8,2.6-2.3c-2.4-4.5-0.6-7,1.9-7
			c1.7,0,3.1,1.1,3.1,3.2c0,5.7-3.2,2.6-3.2,9.1h-6C9.5,29.9,9.3,29,11.1,28.6z M30.5,27.8c-2.2-0.5-4.3-1-3.3-2.8
			c3-5.7,0.8-8.8-2.4-8.8c-3.3,0-5.4,3.2-2.4,8.8c1,1.9-1.1,2.3-3.3,2.8c-2.2,0.5-2,1.7-2,3.8h15.4C32.5,29.5,32.7,28.3,30.5,27.8z"
			/>
	</g>
	<circle fill="none" stroke="#26747B" stroke-width="3" stroke-miterlimit="10" cx="24.8" cy="24.9" r="19.8"/>
	<line fill="none" stroke="#26747B" stroke-width="3" stroke-miterlimit="10" x1="38.8" y1="38.7" x2="11.1" y2="11"/>
</g>
</svg>
