<?xml version="1.0" encoding="utf-8"?>
<!-- Generator: Adobe Illustrator 18.1.1, SVG Export Plug-In . SVG Version: 6.00 Build 0)  -->
<svg version="1.1" id="Layer_1" xmlns="http://www.w3.org/2000/svg" xmlns:xlink="http://www.w3.org/1999/xlink" x="0px" y="0px"
	 viewBox="0 0 50 50" enable-background="new 0 0 50 50" xml:space="preserve">
<path fill-rule="evenodd" clip-rule="evenodd" fill="none" stroke="#FFFFFF" stroke-miterlimit="10" d="M25,2.2
	c-12.3,0-22.3,10-22.3,22.3c0,12.3,10,22.3,22.3,22.3c12.3,0,22.3-10,22.3-22.3C47.3,12.2,37.3,2.2,25,2.2z"/>
<g>
	<path fill="#FFFFFF" d="M25.2,26.9c-0.2-1.4-0.9-2.5-2.2-3.1c-0.1,0-0.1-0.1-0.2-0.1c1.3-0.6,1.9-1.6,1.9-2.9
		c0.1-1.4-0.3-2.7-1.5-3.6c-0.9-0.7-2-0.9-3.2-1c-2.6,0-5.3,0-7.9,0c-0.1,0-0.1,0-0.2,0v16.3h0.4c2.2,0,4.5,0,6.7,0
		c0.7,0,1.4-0.1,2.1-0.1c1.1-0.1,2.1-0.6,2.9-1.5C25,29.7,25.3,28.4,25.2,26.9z M15.1,22.4V19c0.1,0,0.2,0,0.2,0c1.3,0,2.5,0,3.7,0
		c0.4,0,0.9,0.1,1.3,0.2c0.6,0.1,0.9,0.6,1,1.1c0.2,1.2-0.4,2-1.6,2.1c-0.8,0.1-1.6,0.1-2.3,0.1c-0.8,0-1.5,0-2.3,0
		C15.1,22.5,15.1,22.4,15.1,22.4z M20.1,29.5c-0.3,0-0.5,0.1-0.8,0.1c-1.4,0-2.8,0-4.2,0v-4.3c0.1,0,0.1,0,0.2,0c1.4,0,2.8,0,4.3,0
		c0.2,0,0.5,0,0.7,0.1c1,0.3,1.5,0.9,1.5,2C21.7,28.6,21.2,29.3,20.1,29.5z"/>
	<path fill="#FFFFFF" d="M35,28.9c-0.2,0-0.4,0.1-0.5,0.3c-0.1,0.2-0.3,0.4-0.4,0.5c-1.1,0.9-3.1,0.8-4-0.3
		c-0.5-0.6-0.7-1.3-0.7-2.1h8.8c-0.1-0.9,0-1.7-0.2-2.5c-0.3-2-1.4-3.5-3.3-4.3c-1.2-0.5-2.4-0.5-3.6-0.3c-2.2,0.3-3.7,1.5-4.4,3.6
		c-0.6,1.6-0.6,3.2-0.3,4.8c0.3,1.5,1.1,2.6,2.4,3.4c1.8,1,3.7,1.2,5.6,0.7c1.4-0.4,2.5-1.3,3.2-2.6c0.2-0.3,0.3-0.7,0.4-1.1
		C36.9,28.9,35.9,28.9,35,28.9z M31.8,22.7c1.9-0.1,3,1.1,3,2.5h-5.3C29.5,24.1,30.3,22.8,31.8,22.7z"/>
	<path fill="#FFFFFF" d="M28.4,17.1c2.3,0,4.7,0,7,0c0,0.5,0,1.1,0,1.6c-2.3,0-4.7,0-7,0C28.4,18.2,28.4,17.7,28.4,17.1z"/>
</g>
</svg>
