<?xml version="1.0" encoding="utf-8"?>
<!-- Generator: Adobe Illustrator 18.1.1, SVG Export Plug-In . SVG Version: 6.00 Build 0)  -->
<svg version="1.1" id="Layer_1" xmlns="http://www.w3.org/2000/svg" xmlns:xlink="http://www.w3.org/1999/xlink" x="0px" y="0px"
	 viewBox="0 0 36 36" enable-background="new 0 0 36 36" xml:space="preserve">
<g>
	<path fill="none" stroke="#FFFFFF" stroke-width="0.75" stroke-miterlimit="10" d="M33.3,26.8H2.4c-0.9,0-1.7-0.7-1.7-1.7V7.3
		c0-0.9,0.7-1.7,1.7-1.7h30.9c0.9,0,1.7,0.7,1.7,1.7v17.8C35,26,34.3,26.8,33.3,26.8z"/>
	<rect x="2.8" y="7.7" fill="none" stroke="#FFFFFF" stroke-width="0.75" stroke-miterlimit="10" width="30.1" height="17.1"/>
	<path fill="none" stroke="#FFFFFF" stroke-width="0.75" stroke-miterlimit="10" d="M11.7,29.8c3.1,0,2.8-3,2.8-3h2.8l0,0h4
		c0,0-0.2,3,2.6,3c0.9,0,1,1.3,0,1.3c-0.7,0-3.4,0-5.1,0c-0.9,0-1.5,0-1.5,0c-1.9,0-4.9,0-5.7,0C10.6,31,10.7,29.8,11.7,29.8z"/>
</g>
</svg>
