<?xml version="1.0" encoding="utf-8"?>
<!-- Generator: Adobe Illustrator 18.1.1, SVG Export Plug-In . SVG Version: 6.00 Build 0)  -->
<svg version="1.1" id="Layer_1" xmlns="http://www.w3.org/2000/svg" xmlns:xlink="http://www.w3.org/1999/xlink" x="0px" y="0px"
	 viewBox="0 0 25 40" enable-background="new 0 0 25 40" xml:space="preserve">
<g>
	<path fill="#FFFFFF" d="M0.3,3.4l4.7,0.4c0.1,0,0.1,0,0.1,0.1l0.3,4c0,0.1,0.2,0.2,0.2,0l2.2-7.6c0-0.1,0.1-0.2,0.2-0.2h5.1
		c0.1,0,0.2,0.1,0.3,0.2l0.5,11.5c0,0.4,0.5,0.5,0.7,0.1l3.8-11.6c0-0.1,0.2-0.2,0.3-0.2l6,1.3c0.1,0,0.2,0.1,0.2,0.3
		c-0.1,2.1-0.4,19.8-0.2,31.1c0,0.1-0.1,0.3-0.3,0.2c-2.4-0.4-3.9-0.7-4.4-0.9c-0.1,0-0.2-0.1-0.2-0.2c0,0-0.5-10.5-0.4-17.7
		c0-0.2-0.2-0.2-0.3,0c-1.8,7-4.4,16.7-4.4,16.7c0,0.1-0.1,0.2-0.3,0.2l-4.6-1.1c-0.1,0-0.2-0.1-0.2-0.2c0,0-0.4-9.7-0.9-16.7
		c0-0.1-0.2-0.2-0.3,0c-1.4,4.7-3.9,15.6-3.9,15.6c0,0.1-0.2,0.2-0.3,0.2l-4.1-1c-0.1,0-0.2-0.1-0.2-0.2C0.2,26,0.4,12.4,0.2,3.5
		C0.2,3.5,0.3,3.4,0.3,3.4z"/>
	<path fill="#FFFFFF" d="M24.3,39.9L0.5,35.1c-0.3-0.1-0.4-0.3-0.4-0.5v-3c0-0.3,0.3-0.6,0.6-0.5l23.7,4.8c0.3,0.1,0.4,0.3,0.4,0.5
		v3C24.9,39.7,24.6,40,24.3,39.9z"/>
</g>
</svg>
