<?xml version="1.0" encoding="utf-8"?>
<!-- Generator: Adobe Illustrator 18.1.1, SVG Export Plug-In . SVG Version: 6.00 Build 0)  -->
<svg version="1.1" id="Layer_1" xmlns="http://www.w3.org/2000/svg" xmlns:xlink="http://www.w3.org/1999/xlink" x="0px" y="0px"
	 viewBox="0 0 50 50" enable-background="new 0 0 50 50" xml:space="preserve">
<circle fill-rule="evenodd" clip-rule="evenodd" fill="none" stroke="#FFFFFF" stroke-miterlimit="10" cx="25" cy="25" r="23.5"/>
<g>
	<path fill="#FFFFFF" d="M38.4,17.6l-1.1-1.1L26.9,27c-1.3,1.3-3.5,1.3-4.8,0L11.7,16.5l-1.1,1.1l7.8,7.8l-7.8,7.8l1.1,1.1l7.8-7.8
		l1.5,1.5c0.9,0.9,2.2,1.5,3.5,1.5c1.3,0,2.6-0.5,3.5-1.5l1.5-1.5l7.8,7.8l1.1-1.1l-7.8-7.8L38.4,17.6z"/>
	<path fill="#FFFFFF" d="M36.2,36.3H12.8c-1.4,0-2.5-1.1-2.5-2.5V17.1c0-1.4,1.1-2.5,2.5-2.5h23.4c1.4,0,2.5,1.1,2.5,2.5v16.7
		C38.7,35.2,37.6,36.3,36.2,36.3z M12.8,16.3c-0.5,0-0.8,0.4-0.8,0.8v16.7c0,0.5,0.4,0.8,0.8,0.8h23.4c0.5,0,0.8-0.4,0.8-0.8V17.1
		c0-0.5-0.4-0.8-0.8-0.8H12.8z"/>
</g>
</svg>
